<?xml version="1.0" encoding="UTF-8"?>
<svg version="1.1" xmlns="http://www.w3.org/2000/svg" width="174" height="45">
<path d="M0 0 C2.51625 -0.0825 5.0325 -0.165 7.625 -0.25 C8.79603271 -0.30462402 8.79603271 -0.30462402 9.99072266 -0.36035156 C15.10409024 -0.44083615 17.94971565 0.6350534 22 4 C24.32664593 7.91299544 24.39335225 11.51578435 24 16 C22.7560955 19.40437021 21.75271708 21.40316276 18.90625 23.66015625 C15.12850891 25.40177614 11.74970121 25.327976 7.6875 25.1875 C5.150625 25.125625 2.61375 25.06375 0 25 C0 16.75 0 8.5 0 0 Z M7 5 C7 9.95 7 14.9 7 20 C13.59529756 18.7284644 13.59529756 18.7284644 16 16 C16.47827951 11.36176838 16.47827951 11.36176838 14.875 7.125 C12.490155 5.53832008 12.490155 5.53832008 7 5 Z " fill="#FFFFFF" transform="translate(6,9)"/>
<path d="M0 0 C1.93166016 0.01740234 1.93166016 0.01740234 3.90234375 0.03515625 C5.19269531 0.04417969 6.48304687 0.05320312 7.8125 0.0625 C8.81152344 0.07410156 9.81054688 0.08570313 10.83984375 0.09765625 C10.95645199 3.4931986 11.02722747 6.88822304 11.08984375 10.28515625 C11.14011719 11.7247168 11.14011719 11.7247168 11.19140625 13.19335938 C11.25147515 17.53333772 11.22695246 20.35995853 9.18359375 24.25390625 C6.25431684 26.55827075 4.77171335 26.62931515 1.08984375 26.41015625 C0.105 26.36503906 -0.87984375 26.31992187 -1.89453125 26.2734375 C-2.6421875 26.21542969 -3.38984375 26.15742187 -4.16015625 26.09765625 C-4.16015625 24.77765625 -4.16015625 23.45765625 -4.16015625 22.09765625 C-3.20302734 22.02417969 -3.20302734 22.02417969 -2.2265625 21.94921875 C-1.40027344 21.87445313 -0.57398437 21.7996875 0.27734375 21.72265625 C1.10105469 21.65304688 1.92476562 21.5834375 2.7734375 21.51171875 C3.45535156 21.37507813 4.13726562 21.2384375 4.83984375 21.09765625 C5.16984375 20.43765625 5.49984375 19.77765625 5.83984375 19.09765625 C5.22496094 19.1440625 4.61007813 19.19046875 3.9765625 19.23828125 C-2.58213317 19.53117356 -2.58213317 19.53117356 -5.16015625 17.59765625 C-7.21798233 12.45309105 -7.82439765 8.75825976 -5.78515625 3.66015625 C-3.53332271 0.10918797 -3.53332271 0.10918797 0 0 Z M-2.16015625 6.09765625 C-2.49348958 9.59765625 -2.49348958 9.59765625 -2.16015625 13.09765625 C-0.33099984 15.3361064 -0.33099984 15.3361064 2.33984375 15.41015625 C3.16484375 15.30703125 3.98984375 15.20390625 4.83984375 15.09765625 C7.22783057 12.19179938 7.22783057 12.19179938 6.52734375 8.47265625 C6.19871252 5.27261313 6.19871252 5.27261313 4.83984375 4.09765625 C0.87867575 3.70675292 0.87867575 3.70675292 -2.16015625 6.09765625 Z " fill="#FFFFFF" transform="translate(97.16015625,14.90234375)"/>
<path d="M0 0 C0.86625 -0.00773438 1.7325 -0.01546875 2.625 -0.0234375 C5.45989732 0.45215383 6.33270651 1.06196109 8 3.375 C8.6875 7.0625 8.6875 7.0625 9 10.375 C4.38 10.375 -0.24 10.375 -5 10.375 C-4.34 11.695 -3.68 13.015 -3 14.375 C0.63 14.375 4.26 14.375 8 14.375 C8 15.695 8 17.015 8 18.375 C4.05880556 20.34559722 -0.70276381 19.81998008 -5 19.375 C-8.53150468 17.27291388 -8.86431858 15.90803416 -9.875 11.9375 C-10.02586721 7.63778457 -9.37855362 5.13648518 -6.734375 1.7578125 C-4.41672853 -0.09004076 -2.93500922 -0.02620544 0 0 Z M-4 4.375 C-4.33 5.365 -4.66 6.355 -5 7.375 C-2.03 7.375 0.94 7.375 4 7.375 C3.67 6.385 3.34 5.395 3 4.375 C0.69 4.375 -1.62 4.375 -4 4.375 Z " fill="#FFFFFF" transform="translate(153,14.625)"/>
<path d="M0 0 C5.61 0 11.22 0 17 0 C17 0.99 17 1.98 17 3 C12.71 3 8.42 3 4 3 C4 5.31 4 7.62 4 10 C7.96 10 11.92 10 16 10 C16 10.99 16 11.98 16 13 C12.04 13 8.08 13 4 13 C4 15.97 4 18.94 4 22 C8.29 22 12.58 22 17 22 C17 22.99 17 23.98 17 25 C11.39 25 5.78 25 0 25 C0 16.75 0 8.5 0 0 Z " fill="#FFFFFF" transform="translate(49,9)"/>
<path d="M0 0 C12.3033675 -0.36544656 12.3033675 -0.36544656 14.90625 1 C16.67520732 4.23466482 16.30953066 7.60480506 16.1875 11.1875 C16.16719727 12.31188477 16.16719727 12.31188477 16.14648438 13.45898438 C16.11118539 15.30629767 16.05737917 17.15324066 16 19 C14.68 19 13.36 19 12 19 C11.67 14.38 11.34 9.76 11 5 C9.35 5 7.7 5 6 5 C4.12175109 6.87824891 4.60897603 10.03935276 4.4375 12.5625 C4.31181641 14.35880859 4.31181641 14.35880859 4.18359375 16.19140625 C4.12300781 17.11824219 4.06242187 18.04507813 4 19 C2.68 19 1.36 19 0 19 C0 12.73 0 6.46 0 0 Z " fill="#FFFFFF" transform="translate(123,15)"/>
<path d="M0 0 C12.3033675 -0.36544656 12.3033675 -0.36544656 14.90625 1 C16.67520732 4.23466482 16.30953066 7.60480506 16.1875 11.1875 C16.16719727 12.31188477 16.16719727 12.31188477 16.14648438 13.45898438 C16.11118539 15.30629767 16.05737917 17.15324066 16 19 C14.68 19 13.36 19 12 19 C11.67 14.38 11.34 9.76 11 5 C9.35 5 7.7 5 6 5 C4.12175109 6.87824891 4.60897603 10.03935276 4.4375 12.5625 C4.31181641 14.35880859 4.31181641 14.35880859 4.18359375 16.19140625 C4.12300781 17.11824219 4.06242187 18.04507813 4 19 C2.68 19 1.36 19 0 19 C0 12.73 0 6.46 0 0 Z " fill="#FFFFFF" transform="translate(70,15)"/>
<path d="M0 0 C1.32 0 2.64 0 4 0 C4 6.27 4 12.54 4 19 C2.68 19 1.36 19 0 19 C0 12.73 0 6.46 0 0 Z " fill="#FFFFFF" transform="translate(114,15)"/>
<path d="M0 0 C3.96 0 7.92 0 12 0 C12 1.65 12 3.3 12 5 C8.04 5 4.08 5 0 5 C0 3.35 0 1.7 0 0 Z " fill="#FFFFFF" transform="translate(33,21)"/>
<path d="M0 0 C1.32 0 2.64 0 4 0 C4 1.32 4 2.64 4 4 C2.68 4 1.36 4 0 4 C0 2.68 0 1.36 0 0 Z " fill="#FFFFFF" transform="translate(114,8)"/>
</svg>
