<?xml version="1.0" encoding="UTF-8"?>
<!DOCTYPE svg PUBLIC "-//W3C//DTD SVG 1.1//EN" "http://www.w3.org/Graphics/SVG/1.1/DTD/svg11.dtd">
<svg xmlns="http://www.w3.org/2000/svg" version="1.1" width="174px" height="45px" style="shape-rendering:geometricPrecision; text-rendering:geometricPrecision; image-rendering:optimizeQuality; fill-rule:evenodd; clip-rule:evenodd" xmlns:xlink="http://www.w3.org/1999/xlink">
<g><path style="opacity:0.767" fill="#000000" d="M 113.5,7.5 C 114.833,7.5 116.167,7.5 117.5,7.5C 117.5,8.83333 117.5,10.1667 117.5,11.5C 116.167,11.5 114.833,11.5 113.5,11.5C 113.5,10.1667 113.5,8.83333 113.5,7.5 Z"/></g>
<g><path style="opacity:0.883" fill="#000000" d="M 5.5,8.5 C 10.8437,8.33398 16.1771,8.50065 21.5,9C 28.996,13.1484 31.1626,19.3151 28,27.5C 26.7494,30.3807 24.5827,32.214 21.5,33C 16.1771,33.4994 10.8437,33.666 5.5,33.5C 5.5,25.1667 5.5,16.8333 5.5,8.5 Z M 12.5,13.5 C 21.8923,14.8371 23.8923,19.3371 18.5,27C 16.7818,27.346 15.1151,27.846 13.5,28.5C 12.5059,23.544 12.1725,18.544 12.5,13.5 Z"/></g>
<g><path style="opacity:0.907" fill="#000000" d="M 48.5,8.5 C 54.1667,8.5 59.8333,8.5 65.5,8.5C 65.5,9.5 65.5,10.5 65.5,11.5C 61.1667,11.5 56.8333,11.5 52.5,11.5C 52.5,13.8333 52.5,16.1667 52.5,18.5C 56.5,18.5 60.5,18.5 64.5,18.5C 64.5,19.5 64.5,20.5 64.5,21.5C 60.5,21.5 56.5,21.5 52.5,21.5C 52.5,24.5 52.5,27.5 52.5,30.5C 56.8333,30.5 61.1667,30.5 65.5,30.5C 65.5,31.5 65.5,32.5 65.5,33.5C 59.8333,33.5 54.1667,33.5 48.5,33.5C 48.5,25.1667 48.5,16.8333 48.5,8.5 Z"/></g>
<g><path style="opacity:0.769" fill="#000000" d="M 69.5,14.5 C 73.6863,14.7916 78.0196,14.9583 82.5,15C 83.3333,15.8333 84.1667,16.6667 85,17.5C 85.4994,22.8229 85.666,28.1563 85.5,33.5C 84.1667,33.5 82.8333,33.5 81.5,33.5C 81.6658,28.8215 81.4992,24.1548 81,19.5C 78.4082,18.0183 76.0749,18.3517 74,20.5C 73.501,24.8206 73.3343,29.1539 73.5,33.5C 72.1667,33.5 70.8333,33.5 69.5,33.5C 69.5,27.1667 69.5,20.8333 69.5,14.5 Z"/></g>
<g><path style="opacity:0.734" fill="#000000" d="M 93.5,14.5 C 98.3236,14.9053 102.99,14.9053 107.5,14.5C 107.932,22.2792 107.432,29.9458 106,37.5C 105.167,38.3333 104.333,39.1667 103.5,40C 99.8484,40.4986 96.1817,40.6653 92.5,40.5C 92.5,39.1667 92.5,37.8333 92.5,36.5C 95.5184,36.6646 98.5184,36.498 101.5,36C 101.957,35.586 102.291,35.086 102.5,34.5C 94.4151,35.5777 90.0817,32.0777 89.5,24C 89.9684,20.4166 91.3018,17.25 93.5,14.5 Z M 96.5,18.5 C 103.559,19.1387 105.225,22.6387 101.5,29C 94.9986,29.8123 92.8319,26.979 95,20.5C 95.7172,19.9558 96.2172,19.2891 96.5,18.5 Z"/></g>
<g><path style="opacity:0.767" fill="#000000" d="M 113.5,14.5 C 114.833,14.5 116.167,14.5 117.5,14.5C 117.5,20.8333 117.5,27.1667 117.5,33.5C 116.167,33.5 114.833,33.5 113.5,33.5C 113.5,27.1667 113.5,20.8333 113.5,14.5 Z"/></g>
<g><path style="opacity:0.769" fill="#000000" d="M 122.5,14.5 C 126.686,14.7916 131.02,14.9583 135.5,15C 136.333,15.8333 137.167,16.6667 138,17.5C 138.499,22.8229 138.666,28.1563 138.5,33.5C 137.167,33.5 135.833,33.5 134.5,33.5C 134.666,28.8215 134.499,24.1548 134,19.5C 131.408,18.0183 129.075,18.3517 127,20.5C 126.501,24.8206 126.334,29.1539 126.5,33.5C 125.167,33.5 123.833,33.5 122.5,33.5C 122.5,27.1667 122.5,20.8333 122.5,14.5 Z"/></g>
<g><path style="opacity:0.771" fill="#000000" d="M 147.5,14.5 C 156.434,12.1202 161.101,15.4535 161.5,24.5C 156.833,24.5 152.167,24.5 147.5,24.5C 147.297,26.3904 147.963,27.8904 149.5,29C 153.203,29.5787 156.869,29.412 160.5,28.5C 160.109,32.9206 157.609,34.5873 153,33.5C 143.79,32.4643 140.79,27.4643 144,18.5C 145.376,17.2949 146.542,15.9616 147.5,14.5 Z M 148.5,18.5 C 150.857,18.3367 153.19,18.5034 155.5,19C 155.957,19.414 156.291,19.914 156.5,20.5C 153.5,21.8333 150.5,21.8333 147.5,20.5C 147.863,19.8165 148.196,19.1499 148.5,18.5 Z"/></g>
<g><path style="opacity:0.869" fill="#000000" d="M 32.5,20.5 C 36.5,20.5 40.5,20.5 44.5,20.5C 44.5,22.1667 44.5,23.8333 44.5,25.5C 40.5,25.5 36.5,25.5 32.5,25.5C 32.5,23.8333 32.5,22.1667 32.5,20.5 Z"/></g>
</svg>
